<svg id="Layer_1" data-name="Layer 1" xmlns="http://www.w3.org/2000/svg" xmlns:xlink="http://www.w3.org/1999/xlink" viewBox="0 0 226.77 226.77"><defs><style>.cls-1{fill:#e6af2f;}.cls-12,.cls-2{fill:#f05850;}.cls-3{fill:#8dc63f;}.cls-4{fill:#9a2728;}.cls-13,.cls-5{fill:#ffc92f;}.cls-11,.cls-6{fill:#547534;}.cls-7{fill:url(#linear-gradient);}.cls-8{fill:#5a6f5a;}.cls-9{fill:url(#linear-gradient-2);}.cls-10{fill:#0e1015;stroke:#0e1015;}.cls-10,.cls-11,.cls-12,.cls-13{stroke-miterlimit:10;stroke-width:0.5px;}.cls-11{stroke:#547534;}.cls-12{stroke:#f05850;}.cls-13{stroke:#ffc92f;}.cls-14{fill:url(#linear-gradient-3);}.cls-15{fill:url(#linear-gradient-4);}</style><linearGradient id="linear-gradient" x1="154.3" y1="108.04" x2="191.05" y2="108.04" gradientUnits="userSpaceOnUse"><stop offset="0.23" stop-color="#314d1c"/><stop offset="0.92" stop-color="#2d3c2f" stop-opacity="0"/></linearGradient><linearGradient id="linear-gradient-2" x1="70.36" y1="86.52" x2="103.48" y2="86.52" gradientUnits="userSpaceOnUse"><stop offset="0.23" stop-color="#314d1c"/><stop offset="0.36" stop-color="#314b1e" stop-opacity="0.9"/><stop offset="0.58" stop-color="#304723" stop-opacity="0.63"/><stop offset="0.83" stop-color="#2e3f2b" stop-opacity="0.18"/><stop offset="0.92" stop-color="#2d3c2f" stop-opacity="0"/></linearGradient><linearGradient id="linear-gradient-3" x1="171.49" y1="87.48" x2="178.25" y2="87.48" xlink:href="#linear-gradient"/><linearGradient id="linear-gradient-4" x1="175.67" y1="89.38" x2="180.22" y2="89.38" xlink:href="#linear-gradient"/></defs><path class="cls-1" d="M154.34,120.32a41.08,41.08,0,0,1-45,0H97.76c1.32,1.62,6.7,7.67,14.64,9.57,1.45-.38,6.47-1.5,9.82.28,3.87,2.05-7.42,4.77-10.74.92-11.33-.39-19.71-8.81-21.51-10.77H72.81a70.76,70.76,0,0,0,10.93,14q19.94,19.94,48.1,19.93t48.17-20c4.33-4.33,6.81-9,9.73-13.92Z"/><path class="cls-2" d="M169,51.71s-1.6-8.48-11.3-12.34a6.49,6.49,0,0,1-4.29.08l-5.78-1.79c-.14,0-.26-.1-.39-.15l.91-.63,5.33,1.28.72-.52-4.43-1.89.71-.49,5,1.64.72-.52-4.66-1.87.74-.52,3.83,1.19c2,.63,3.17,2,2.74,3.09,12.29,4.67,15.47,12.54,15.83,13.54h16.15A71.16,71.16,0,0,0,180.16,38q-20-19.86-48.17-19.86c-1.67,0-3.32.07-5,.17l.07,0-46.36-.13H62.25a3.1,3.1,0,0,0-3.1,3.1v.53a3.1,3.1,0,0,0,3.1,3.1H78.54a2.22,2.22,0,0,1,0,4.43H70a3.1,3.1,0,1,0,0,6.19h8.5a2.22,2.22,0,0,1,0,4.43H53.75a3.1,3.1,0,0,0-3.1,3.1v.53a3.1,3.1,0,0,0,3.1,3.1H76.51c-1.22,1.68-2.36,3.39-3.41,5.15h36.78a41,41,0,0,1,44.22,0H169Z"/><path class="cls-3" d="M91.17,86.16a39.25,39.25,0,0,1,11.64-28.48H70A66.71,66.71,0,0,0,64,86.16a66.74,66.74,0,0,0,6.4,29.2h33.17l-.39-.35A39.33,39.33,0,0,1,91.17,86.16Z"/><rect class="cls-2" x="45.97" y="18.15" width="10.74" height="6.73" rx="3.16"/><rect class="cls-4" x="37.02" y="39.93" width="10.74" height="6.73" rx="3.16"/><rect class="cls-1" x="46.58" y="125.65" width="10.74" height="6.73" rx="3.16"/><path class="cls-5" d="M40.8,147.56h4.41a3.16,3.16,0,0,1,3.16,3.16v.41a3.16,3.16,0,0,1-3.16,3.16H40.8a3.16,3.16,0,0,1-3.16-3.16v-.4A3.17,3.17,0,0,1,40.8,147.56Z"/><path class="cls-6" d="M183.75,100.72H161.6a18.36,18.36,0,0,0-7.3,14.63h36.75A18.33,18.33,0,0,0,183.75,100.72Z"/><path class="cls-7" d="M183.76,100.72l-22,1.07c-4.42,3.35-7.49,7.59-7.49,13.56,0,0,.43,0,.43,0h36.32A18.35,18.35,0,0,0,183.76,100.72Z"/><path class="cls-5" d="M191,120.28h-36.5s-19.94,40.21-81.68,0a33.94,33.94,0,0,0,3.47,5.33H62.86a3.1,3.1,0,0,0-3.1,3.1v.53a3.1,3.1,0,0,0,3.1,3.1H79.15a2.22,2.22,0,1,1,0,4.43h-8.5a3.1,3.1,0,1,0,0,6.2h8.5a2.21,2.21,0,1,1,0,4.42H54.36a3.09,3.09,0,0,0-3.09,3.1v.53a3.22,3.22,0,0,0,3.1,3.23H134.6C143.26,154.27,171.62,151.69,191,120.28Z"/><path class="cls-4" d="M169,51.71s-1.6-8.48-11.3-12.35a6.48,6.48,0,0,1-4.29.09l-5.78-1.79c-.14,0-.26-.1-.39-.15l.91-.63,5.33,1.28.72-.52-4.43-1.89.71-.49,5,1.64.72-.52-4.66-1.87.74-.52,3.83,1.19c2,.63,3.17,2,2.74,3.08,12.29,4.68,15.47,12.55,15.83,13.55h16.15c-30.46-48.51-81,0-81,0,22.52-14.31,44.22,0,44.22,0H169Z"/><path class="cls-3" d="M175.48,100.72a4.74,4.74,0,0,0,.07-.79c0-1-.31-1.85-.7-1.85H170.6c-.38,0-.7.83-.7,1.85a4.74,4.74,0,0,0,.07.79H161.6A18.29,18.29,0,0,0,155,110.2a17.3,17.3,0,0,0-.67,5.16s12.26-13.09,29.45-14.64Z"/><path class="cls-8" d="M102.81,57.68S71.67,70.63,70.36,115.36h33.12S76.17,88.55,102.81,57.68Z"/><path class="cls-6" d="M102.81,57.68S71.67,70.63,70.36,115.36h33.12S76.17,88.55,102.81,57.68Z"/><path class="cls-9" d="M102.81,57.68S71.67,70.63,70.36,115.36h33.12S76.17,88.55,102.81,57.68Z"/><path class="cls-10" d="M53,169.58c-6,.39-12.53,2-12.53,10.15,0,7.45,3.86,12,11.7,12H65c.06,0,.06,0,.06,0,0,.55-2.65,2.93-2.93,2.93H50.44c-8.66,0-12.8-5-12.8-11.65a16.6,16.6,0,0,1,6.62-13c3.42-2.64,6.73-3.42,11.59-3.42,0,0,0,0,0,.06,0,.55-2.65,2.92-2.92,2.92"/><path class="cls-11" d="M78.2,170V170c-.23.55-1.55,1.16-2.55,1.44l-14.06,4a2.79,2.79,0,0,1-.89.11c-.22,0-.44.05-.44-.17v-.11c.22-.55,1.49-1.16,2.48-1.43l14.13-4a2.73,2.73,0,0,1,.88-.11c.22,0,.45.05.45.22"/><path class="cls-10" d="M85.53,191.71H79.35c-3.09,0-4.19-1.22-4.19-6.46a36.87,36.87,0,0,1,.49-5.57s0-.06-.05-.06a1,1,0,0,0-.5.22c-4.3.11-13.57,3.09-13.57,10.38,0,2.53,1.71,4.58,5.52,4.58,2.32,0,4.08-1.38,5.63-3.09a3.79,3.79,0,0,0,3.86,3h6.12c.28,0,2.93-2.38,2.93-2.93C85.59,191.71,85.59,191.71,85.53,191.71ZM72.18,188c0,2.48-.83,3.86-2.32,3.86-3,0-5.51-2-5.51-5,0-3.69,4.91-3.91,8.11-4.08a.2.2,0,0,0,.16,0A32.58,32.58,0,0,0,72.18,188Z"/><path class="cls-10" d="M88.51,166.33A5.73,5.73,0,0,1,87.24,168,4,4,0,0,0,86,169.86a41.75,41.75,0,0,0-.33,6.67v.94c1.77.11,3.42.39,4.63.39a3.81,3.81,0,0,0,1.22-.17,7.08,7.08,0,0,1,1.65-1.32c.06,0,.06,0,.06,0a.06.06,0,0,0-.06.06c0,.11-.44.55-2.15,2.7a5.5,5.5,0,0,1-4.63,2H85.7c0,5.36,0,10.54-.06,10.54,0,3.53,2.93,5,5.8,5,4,0,4.52-5.07,6-5.07.06,0,.06,0,.06,0V192c0,3.09-6.13,7.94-9.71,7.94-3,0-5.14-2-5.14-5.35V180.78a14.45,14.45,0,0,0-2.09-.16,6.63,6.63,0,0,0-1,0c-.38.5-2.09,2.37-2.59,2.37,0,0,0,0,0,0s-.06-.28-.06-.44c0-.33.44-.66,1.49-2.21a6.59,6.59,0,0,1,4.36-2.71,23.17,23.17,0,0,1,.44-5.13,16.08,16.08,0,0,1,3.64-5,5.58,5.58,0,0,1,1.66-1.27h.05Z"/><path class="cls-12" d="M112.63,198.18v.06c-.23.55-1.55,1.16-2.54,1.43l-14.07,4a2.79,2.79,0,0,1-.89.11c-.22,0-.44.06-.44-.16v-.11c.22-.55,1.49-1.16,2.48-1.43l14.13-4a2.73,2.73,0,0,1,.88-.11c.22,0,.45.06.45.22"/><path class="cls-10" d="M116.66,191.71H102.2a4,4,0,0,1-3.87-1.94A22.22,22.22,0,0,0,106,184.2c1.27-1.49,1.27-2,1.27-2.76a1.53,1.53,0,0,0-1.33-1.6H105c-2.59,0-3.31.17-7.17,4.2a9.39,9.39,0,0,0-3,6.18c0,2.54,1.82,4.47,5.63,4.47h13.29c.28,0,2.93-2.38,2.93-2.93C116.71,191.71,116.71,191.71,116.66,191.71Zm-19-4.81c0-3.14,2.82-3.91,5.35-4.08a1.45,1.45,0,0,1,1.22,1.49,3.48,3.48,0,0,1-.11.77,17.42,17.42,0,0,0-6.07,4.14A5.91,5.91,0,0,1,97.67,186.9Z"/><path class="cls-10" d="M118.14,193c.06-6.34,2.6-9.32,2.6-9.32a18.6,18.6,0,0,1-3.92,1c-2.21,0-3-1-3-2.48,0-1.88,1.49-4.42,3.21-6.24a5.66,5.66,0,0,1,1.82-1.49h0a7.94,7.94,0,0,1-1.1,1.44,2.8,2.8,0,0,0-.94,2.37c0,2.32,1.27,2.92,2.7,2.92,1.71,0,3.7-.88,4.2-.88.11,0,.16.06.16.17,0,.82-2.76,4.13-2.76,9.82,0,5.24,2.1,6.45,6.46,6.45,4.85,0,5.52-5.07,7.34-5.07.05,0,.05,0,.05,0V192c0,1.93-6.95,7.94-11,7.94s-5.69-3.09-5.8-6.67Z"/><path class="cls-10" d="M151.75,193.36c-.23,0-.39-.05-.39-.33-.11-1.49-.11-3.14-.11-4.74,0-3.65-.83-4.86-1.65-4.86-1.88,0-3.75,6.46-3.87,8.16v.34c0,.27-2.37,2.76-2.92,2.76-.06,0-.06,0-.06-.06l.11-6.62a30.37,30.37,0,0,1,.5-5.57c.06-.28,2.26-2.82,2.92-2.82a.06.06,0,0,1,.06.06,35.62,35.62,0,0,0-.49,5.57v1.05c1.7-3.42,4-6.57,6.4-6.57,1.21,0,1.76,1.33,1.92,3.92,1.72-2.26,3.76-3.92,5.8-3.92,1.43,0,2,1.94,2,5.52,0,5.74.17,11.59,4.15,11.59,5.51,0,4.68-5.08,6-5.08.06,0,.06,0,.06.06v.27c0,2.1-3.81,7.89-8.72,7.89-3.92,0-4.41-7.22-4.41-11.64v-.05c0-4.09-1.11-5.41-2.21-5.41-.88,0-1.77.94-2.54,2.2v.17c0,2.21,0,4.08.11,5.63,0,.94-1.82,2.48-2.59,2.48"/><path class="cls-13" d="M186.9,198.18v.06c-.22.55-1.55,1.16-2.54,1.43l-14.07,4a2.76,2.76,0,0,1-.89.11c-.21,0-.44.06-.44-.16v-.11c.23-.55,1.49-1.16,2.49-1.43l14.12-4a2.76,2.76,0,0,1,.89-.11c.22,0,.44.06.44.22"/><path class="cls-10" d="M190.93,190.4H176.47a4,4,0,0,1-3.86-1.93,22.48,22.48,0,0,0,7.61-5.58c1.27-1.49,1.27-2,1.27-2.76a1.52,1.52,0,0,0-1.33-1.59h-.88c-2.59,0-3.31.16-7.17,4.19a9.39,9.39,0,0,0-3,6.18c0,2.54,1.82,4.47,5.63,4.47h13.29c.28,0,2.93-2.37,2.93-2.93C191,190.4,191,190.4,190.93,190.4Zm-19-4.8c0-3.15,2.82-3.92,5.36-4.09a1.45,1.45,0,0,1,1.21,1.5,3,3,0,0,1-.11.77,17.11,17.11,0,0,0-6.07,4.14A6,6,0,0,1,171.94,185.6Z"/><path class="cls-3" d="M171.91,93.18a5.6,5.6,0,0,1-1.3-7c2.1-4.42,5.84-5.6,8.47-8.2a9.65,9.65,0,0,0,1.16-1.43,5.83,5.83,0,0,1-2,5.22C173.28,85.88,171.24,88.8,171.91,93.18Z"/><path class="cls-14" d="M178.25,81.77h0A17.5,17.5,0,0,0,172.87,86c-2.33,2.73-1,7.23-1,7.23C171.18,88.71,173.46,85.85,178.25,81.77Z"/><path class="cls-3" d="M175.9,93.18a3.64,3.64,0,0,1-.85-4.56c1.37-2.88,3.81-3.65,5.52-5.35a5.81,5.81,0,0,0,.76-.93,3.81,3.81,0,0,1-1.3,3.4C176.8,88.42,175.46,90.33,175.9,93.18Z"/><path class="cls-15" d="M180.22,85.57h0a12,12,0,0,0-3.63,2.81c-1.55,1.81-.67,4.8-.67,4.8C175.47,90.22,177,88.29,180.22,85.57Z"/></svg>