<svg xmlns="http://www.w3.org/2000/svg" width="85" height="59.5" viewBox="0 0 85 59.5">
  <path id="Icon_awesome-truck-moving" data-name="Icon awesome-truck-moving" d="M82.516,29.516l-7.77-7.77a8.5,8.5,0,0,0-6.016-2.484H63.75V6.5A4.245,4.245,0,0,0,59.5,2.25H4.25A4.245,4.245,0,0,0,0,6.5V51.125a10.6,10.6,0,0,0,19.125,6.322A10.6,10.6,0,0,0,38.25,51.125,11.193,11.193,0,0,0,38.037,49H59.713a10.208,10.208,0,0,0-.212,2.125,10.625,10.625,0,1,0,21.25,0A11.193,11.193,0,0,0,80.537,49h2.338A2.131,2.131,0,0,0,85,46.875V35.52A8.472,8.472,0,0,0,82.516,29.516ZM10.625,55.375a4.25,4.25,0,1,1,4.25-4.25A4.262,4.262,0,0,1,10.625,55.375Zm17,0a4.25,4.25,0,1,1,4.25-4.25A4.262,4.262,0,0,1,27.625,55.375ZM63.75,25.625h4.98a2.11,2.11,0,0,1,1.5.624L75.982,32H63.75Zm6.375,29.75a4.25,4.25,0,1,1,4.25-4.25A4.262,4.262,0,0,1,70.125,55.375Z" transform="translate(0 -2.25)" fill="#3f5521"/>
</svg>
