<svg xmlns="http://www.w3.org/2000/svg" xmlns:xlink="http://www.w3.org/1999/xlink" width="1125" height="2436" viewBox="0 0 1125 2436">
  <defs>
    <clipPath id="clip-Order_Delivered_1">
      <rect width="1125" height="2436"/>
    </clipPath>
  </defs>
  <g id="Order_Delivered_1" data-name="Order Delivered – 1" clip-path="url(#clip-Order_Delivered_1)">
    <g id="Group_1179" data-name="Group 1179" transform="translate(182 -593)">
      <g id="Group_1159" data-name="Group 1159" transform="translate(347.6 1450.8)">
        <text id="Order_Received_" data-name="Order Received!" transform="translate(19.4 50.2)" fill="#3f5521" font-size="56" font-family="BerlinSansFBDemi-Bold, Berlin Sans FB" font-weight="700"><tspan x="-198.529" y="0">Order Received!</tspan></text>
      </g>
      <g id="Group_1160" data-name="Group 1160" transform="translate(354.6 1670.8)">
        <text id="Preparing_Order" data-name="Preparing Order" transform="translate(19.4 50.2)" fill="#3f5521" font-size="56" font-family="BerlinSansFBDemi-Bold, Berlin Sans FB" font-weight="700"><tspan x="-206.377" y="0">Preparing Order</tspan></text>
      </g>
      <g id="Group_1161" data-name="Group 1161" transform="translate(348.6 1890.8)">
        <text id="Order_Is_On_The_Way" data-name="Order Is On The Way" transform="translate(78.4 50.2)" fill="#3f5521" font-size="56" font-family="BerlinSansFBDemi-Bold, Berlin Sans FB" font-weight="700"><tspan x="-258.604" y="0">Order Is On The Way</tspan></text>
      </g>
      <g id="Group_1162" data-name="Group 1162" transform="translate(347.6 2110.8)">
        <text id="Order_Delivered" data-name="Order Delivered" transform="translate(19.4 50.2)" fill="#eab316" font-size="56" font-family="BerlinSansFBDemi-Bold, Berlin Sans FB" font-weight="700"><tspan x="-199.309" y="0">Order Delivered</tspan></text>
      </g>
      <path id="Icon_awesome-circle" data-name="Icon awesome-circle" d="M17.563.563a17,17,0,1,0,17,17A17,17,0,0,0,17.563.563Z" transform="translate(74.438 1463.438)" fill="#3f5521"/>
      <path id="Icon_awesome-circle-2" data-name="Icon awesome-circle" d="M17.563.563a17,17,0,1,0,17,17A17,17,0,0,0,17.563.563Z" transform="translate(74.438 1683.438)" fill="#3f5521"/>
      <path id="Icon_awesome-circle-3" data-name="Icon awesome-circle" d="M17.563.563a17,17,0,1,0,17,17A17,17,0,0,0,17.563.563Z" transform="translate(74.438 1903.438)" fill="#3f5521"/>
      <path id="Icon_awesome-circle-4" data-name="Icon awesome-circle" d="M17.563.563a17,17,0,1,0,17,17A17,17,0,0,0,17.563.563Z" transform="translate(74.438 2123.438)" fill="#eab316"/>
      <line id="Line_224" data-name="Line 224" y2="147" transform="translate(92 1517.5)" fill="none" stroke="#3f5521" stroke-linecap="round" stroke-width="7"/>
      <line id="Line_225" data-name="Line 225" y2="147" transform="translate(92 1737.5)" fill="none" stroke="#3f5521" stroke-linecap="round" stroke-width="7"/>
      <line id="Line_226" data-name="Line 226" y2="147" transform="translate(92 1957.5)" fill="none" stroke="#3f5521" stroke-linecap="round" stroke-width="7"/>
    </g>
  </g>
</svg>
